<svg width="30" height="30" viewBox="0 0 30 30" fill="none" xmlns="http://www.w3.org/2000/svg">
<g clip-path="url(#clip0_55_2823)">
<path d="M22.5 8.74944C22.5 8.99667 22.4267 9.23835 22.2893 9.44391C22.152 9.64947 21.9568 9.80968 21.7284 9.90429C21.4999 9.9989 21.2486 10.0237 21.0061 9.97543C20.7637 9.92719 20.5409 9.80814 20.3661 9.63333C20.1913 9.45851 20.0723 9.23578 20.024 8.99331C19.9758 8.75083 20.0005 8.4995 20.0951 8.27109C20.1898 8.04268 20.35 7.84746 20.5555 7.71011C20.7611 7.57276 21.0028 7.49944 21.25 7.49944C21.5815 7.49944 21.8995 7.63114 22.1339 7.86556C22.3683 8.09998 22.5 8.41792 22.5 8.74944ZM17.5 11.2494C17.2528 11.2494 17.0111 11.3228 16.8055 11.4601C16.6 11.5975 16.4398 11.7927 16.3451 12.0211C16.2505 12.2495 16.2258 12.5008 16.274 12.7433C16.3223 12.9858 16.4413 13.2085 16.6161 13.3833C16.7909 13.5581 17.0137 13.6772 17.2561 13.7254C17.4986 13.7737 17.7499 13.7489 17.9784 13.6543C18.2068 13.5597 18.402 13.3995 18.5393 13.1939C18.6767 12.9883 18.75 12.7467 18.75 12.4994C18.75 12.1679 18.6183 11.85 18.3839 11.6156C18.1495 11.3811 17.8315 11.2494 17.5 11.2494ZM13.75 14.9994C13.5028 14.9994 13.2611 15.0728 13.0555 15.2101C12.85 15.3475 12.6898 15.5427 12.5951 15.7711C12.5005 15.9995 12.4758 16.2508 12.524 16.4933C12.5722 16.7358 12.6913 16.9585 12.8661 17.1333C13.0409 17.3081 13.2637 17.4272 13.5061 17.4754C13.7486 17.5237 13.9999 17.4989 14.2284 17.4043C14.4568 17.3097 14.652 17.1495 14.7893 16.9439C14.9267 16.7383 15 16.4967 15 16.2494C15 15.9179 14.8683 15.6 14.6339 15.3656C14.3995 15.1311 14.0815 14.9994 13.75 14.9994ZM29.8325 3.69694L29.7388 3.96069C27.8612 9.17069 26.06 14.1244 22.5 18.5244V18.7494C22.4978 20.6641 22.0965 22.5572 21.3217 24.3081C20.5469 26.0589 19.4156 27.629 18 28.9182C17.2506 29.6096 16.2696 29.9953 15.25 29.9994C14.1889 29.9961 13.1722 29.5726 12.4226 28.8216C11.6729 28.0705 11.2513 27.0531 11.25 25.9919V24.5532C10.3276 24.2557 9.48799 23.7458 8.79875 23.0644L8.75 23.0169L5.88375 25.8832C5.648 26.1109 5.33224 26.2369 5.0045 26.234C4.67675 26.2312 4.36324 26.0997 4.13148 25.868C3.89972 25.6362 3.76826 25.3227 3.76541 24.9949C3.76256 24.6672 3.88855 24.3514 4.11625 24.1157L6.9825 21.2494L6.93375 21.2019C6.25196 20.5119 5.74087 19.6721 5.44125 18.7494H4.20375C3.08937 18.7485 2.02089 18.3054 1.23279 17.5175C0.444683 16.7297 0.00132384 15.6613 0 14.5469C0.00221109 13.4586 0.421879 12.4125 1.1725 11.6244C2.47938 10.2823 4.04849 9.22341 5.7822 8.51375C7.51591 7.8041 9.37711 7.45883 11.25 7.49944H11.475C15.875 3.94069 20.825 2.13944 26.0325 0.263194L26.3025 0.166944C26.7952 -0.0142045 27.3295 -0.0505244 27.8423 0.0622758C28.355 0.175076 28.8247 0.432282 29.1959 0.803504C29.5672 1.17473 29.8244 1.64445 29.9372 2.15717C30.05 2.6699 30.0136 3.2042 29.8325 3.69694ZM4.20375 16.2494H5.125C5.21891 15.1481 5.60322 14.0913 6.23875 13.1869C6.93631 12.1833 7.69132 11.2209 8.5 10.3044C6.40316 10.7385 4.48619 11.7954 3 13.3369C2.68383 13.6609 2.50474 14.0943 2.5 14.5469C2.50066 14.9985 2.68042 15.4313 2.99982 15.7505C3.31923 16.0697 3.75221 16.2491 4.20375 16.2494ZM19.625 21.5644C18.7284 22.3493 17.7886 23.0834 16.81 23.7632C15.9049 24.3926 14.8489 24.7704 13.75 24.8582V25.9919C13.7507 26.3918 13.9099 26.775 14.1927 27.0576C14.4755 27.3402 14.8589 27.4991 15.2587 27.4994C15.6551 27.4936 16.035 27.3398 16.3237 27.0682C17.9352 25.5931 19.0823 23.6807 19.625 21.5644ZM27.4212 2.57819C27.3879 2.54114 27.3439 2.51544 27.2952 2.50468C27.2466 2.49392 27.1958 2.49865 27.15 2.51819L26.8812 2.61569C20.8262 4.79694 15.5975 6.68194 11.095 11.1832C10.0622 12.2483 9.12209 13.3995 8.285 14.6244C7.77583 15.3472 7.53837 16.2265 7.61453 17.1073C7.69069 17.9881 8.07558 18.8136 8.70125 19.4382L10.5662 21.3007C11.1905 21.9259 12.0155 22.3106 12.8957 22.387C13.7759 22.4634 14.6549 22.2265 15.3775 21.7182C16.6017 20.8812 17.7522 19.9411 18.8162 18.9082C23.3162 14.4082 25.2038 9.17444 27.3862 3.11694L27.4813 2.85319C27.5015 2.80688 27.5066 2.75536 27.4958 2.70598C27.485 2.65659 27.4589 2.61188 27.4212 2.57819Z" fill="#FF7700"/>
</g>
<defs>
<clipPath id="clip0_55_2823">
<rect width="30" height="30" fill="white"/>
</clipPath>
</defs>
</svg>
