<svg width="30" height="30" viewBox="0 0 30 30" fill="none" xmlns="http://www.w3.org/2000/svg">
<g clip-path="url(#clip0_55_2829)">
<path d="M11.2063 30H5C3.67392 30 2.40215 29.4732 1.46447 28.5355C0.526784 27.5979 0 26.3261 0 25V18.75C0 17.4239 0.526784 16.1521 1.46447 15.2145C2.40215 14.2768 3.67392 13.75 5 13.75H16.0713C16.7478 13.7503 17.4127 13.9253 18.0018 14.2579C18.5909 14.5905 19.0841 15.0696 19.4338 15.6488L23.455 11.23C23.7876 10.8642 24.1891 10.5676 24.6364 10.3571C25.0837 10.1465 25.5681 10.0262 26.0619 10.003C26.5558 9.97979 27.0494 10.0541 27.5144 10.2218C27.9795 10.3894 28.407 10.6471 28.7725 10.98C29.5017 11.6499 29.9387 12.5794 29.9895 13.5683C30.0402 14.5572 29.7006 15.5265 29.0438 16.2675L20.5437 25.8137C19.3701 27.13 17.9316 28.1834 16.3224 28.9048C14.7132 29.6263 12.9698 29.9995 11.2063 30ZM5 16.25C4.33696 16.25 3.70107 16.5134 3.23223 16.9822C2.76339 17.4511 2.5 18.087 2.5 18.75V25C2.5 25.663 2.76339 26.2989 3.23223 26.7678C3.70107 27.2366 4.33696 27.5 5 27.5H11.2063C12.6162 27.4994 14.01 27.2009 15.2965 26.624C16.583 26.0471 17.733 25.2049 18.6712 24.1525L27.1775 14.605C27.3983 14.3562 27.5127 14.0307 27.4958 13.6985C27.479 13.3662 27.3324 13.0539 27.0875 12.8287C26.8385 12.6049 26.5121 12.487 26.1775 12.5C26.0117 12.507 25.8489 12.547 25.6986 12.6176C25.5484 12.6882 25.4137 12.788 25.3025 12.9113L19.77 19C19.5271 19.6722 19.1063 20.2659 18.5524 20.7176C17.9985 21.1694 17.3323 21.4622 16.625 21.565L10.1737 22.4875C9.84554 22.5346 9.51208 22.4493 9.24672 22.2506C8.98135 22.0518 8.80583 21.7557 8.75875 21.4275C8.71167 21.0993 8.79691 20.7658 8.99569 20.5005C9.19448 20.2351 9.49054 20.0596 9.81875 20.0125L16.2712 19.0912C16.6294 19.0412 16.9552 18.857 17.1829 18.576C17.4105 18.295 17.523 17.938 17.4976 17.5773C17.4722 17.2165 17.3108 16.8788 17.0461 16.6325C16.7813 16.3861 16.4329 16.2494 16.0713 16.25H5ZM13.75 11.3425C13.1834 11.344 12.6334 11.1517 12.1912 10.7975C10.0513 9.08 7.5 6.5 7.5 4C7.46931 2.97296 7.8466 1.97556 8.54935 1.22596C9.2521 0.476354 10.2231 0.0355653 11.25 0C12.1842 0.00363853 13.0805 0.369772 13.75 1.02125C14.4195 0.369772 15.3158 0.00363853 16.25 0C17.2769 0.0355653 18.2479 0.476354 18.9506 1.22596C19.6534 1.97556 20.0307 2.97296 20 4C20 6.5 17.4487 9.08 15.3075 10.7987C14.8655 11.1522 14.316 11.3441 13.75 11.3425ZM11.25 2.5C10.8867 2.53645 10.5522 2.71402 10.3184 2.99453C10.0847 3.27504 9.97034 3.63607 10 4C10 5.125 11.4387 6.9875 13.7575 8.84875C16.0612 6.9875 17.5 5.125 17.5 4C17.5297 3.63607 17.4153 3.27504 17.1816 2.99453C16.9478 2.71402 16.6133 2.53645 16.25 2.5C15.8867 2.53645 15.5522 2.71402 15.3184 2.99453C15.0847 3.27504 14.9703 3.63607 15 4C15 4.33152 14.8683 4.64946 14.6339 4.88388C14.3995 5.1183 14.0815 5.25 13.75 5.25C13.4185 5.25 13.1005 5.1183 12.8661 4.88388C12.6317 4.64946 12.5 4.33152 12.5 4C12.5297 3.63607 12.4153 3.27504 12.1816 2.99453C11.9478 2.71402 11.6133 2.53645 11.25 2.5Z" fill="#FF7700"/>
</g>
<defs>
<clipPath id="clip0_55_2829">
<rect width="30" height="30" fill="white"/>
</clipPath>
</defs>
</svg>
