<svg width="63" height="63" viewBox="0 0 63 63" fill="none" xmlns="http://www.w3.org/2000/svg">
<path d="M22.7637 30.7126C24.7896 34.8962 28.1725 38.2705 32.3613 40.2856C32.6703 40.4319 33.0121 40.4953 33.353 40.4694C33.6939 40.4435 34.0221 40.3293 34.3055 40.138L40.4578 36.0282C40.7296 35.8438 41.0437 35.7314 41.3708 35.7012C41.6978 35.6711 42.0272 35.7243 42.3281 35.8559L53.8453 40.8024C54.2389 40.9663 54.5678 41.2549 54.7812 41.624C54.9947 41.9931 55.0809 42.4221 55.0266 42.845C54.6615 45.6941 53.2709 48.3126 51.1148 50.2105C48.9587 52.1084 46.1849 53.1557 43.3125 53.1563C34.436 53.1563 25.9231 49.6302 19.6465 43.3536C13.3699 37.0769 9.84375 28.564 9.84375 19.6876C9.8444 16.8152 10.8917 14.0414 12.7896 11.8853C14.6875 9.72923 17.306 8.33855 20.1551 7.97352C20.578 7.9192 21.007 8.0054 21.3761 8.21884C21.7451 8.43229 22.0338 8.76114 22.1977 9.15477L27.1441 20.6966C27.2728 20.9927 27.3266 21.316 27.3008 21.6379C27.2751 21.9597 27.1706 22.2703 26.9965 22.5423L22.8867 28.793C22.7038 29.0758 22.5964 29.4007 22.5748 29.7368C22.5533 30.0728 22.6183 30.4088 22.7637 30.7126V30.7126Z" stroke="white" stroke-width="3.9375" stroke-linecap="round" stroke-linejoin="round"/>
</svg>
