<svg width="45" height="57" viewBox="0 0 45 57" fill="none" xmlns="http://www.w3.org/2000/svg">
<path d="M4.03125 54.8125H40.5938" stroke="white" stroke-width="4" stroke-linecap="round" stroke-linejoin="round"/>
<path d="M22.3125 30.4375C26.7998 30.4375 30.4375 26.7998 30.4375 22.3125C30.4375 17.8252 26.7998 14.1875 22.3125 14.1875C17.8252 14.1875 14.1875 17.8252 14.1875 22.3125C14.1875 26.7998 17.8252 30.4375 22.3125 30.4375Z" stroke="white" stroke-width="4" stroke-linecap="round" stroke-linejoin="round"/>
<path d="M42.625 22.3125C42.625 40.5938 22.3125 54.8125 22.3125 54.8125C22.3125 54.8125 2 40.5938 2 22.3125C2 16.9253 4.14006 11.7587 7.94939 7.94939C11.7587 4.14006 16.9253 2 22.3125 2C27.6997 2 32.8663 4.14006 36.6756 7.94939C40.4849 11.7587 42.625 16.9253 42.625 22.3125V22.3125Z" stroke="white" stroke-width="4" stroke-linecap="round" stroke-linejoin="round"/>
</svg>
