<svg width="450" height="243" viewBox="0 0 450 243" fill="none" xmlns="http://www.w3.org/2000/svg">
<rect x="59" width="391" height="138" rx="40" fill="url(#paint0_linear_55_667)"/>
<rect x="37" y="106" width="256" height="136" rx="39" stroke="#FF7700" stroke-width="2"/>
<rect x="0.5" y="62.5" width="387" height="133" rx="24.5" fill="white" stroke="#063853"/>
<path d="M45.2 100.98C45.1333 101.093 45.0633 101.177 44.99 101.23C44.9167 101.283 44.8233 101.31 44.71 101.31C44.59 101.31 44.4533 101.257 44.3 101.15C44.1467 101.037 43.9533 100.913 43.72 100.78C43.4933 100.64 43.22 100.517 42.9 100.41C42.58 100.297 42.1967 100.24 41.75 100.24C41.33 100.24 40.96 100.297 40.64 100.41C40.3267 100.517 40.0633 100.667 39.85 100.86C39.6367 101.047 39.4733 101.27 39.36 101.53C39.2533 101.783 39.2 102.06 39.2 102.36C39.2 102.747 39.2967 103.067 39.49 103.32C39.69 103.573 39.95 103.79 40.27 103.97C40.59 104.15 40.9533 104.307 41.36 104.44C41.7667 104.573 42.1833 104.713 42.61 104.86C43.0367 105 43.4533 105.163 43.86 105.35C44.2667 105.537 44.63 105.773 44.95 106.06C45.27 106.34 45.5267 106.687 45.72 107.1C45.92 107.507 46.02 108.007 46.02 108.6C46.02 109.233 45.91 109.827 45.69 110.38C45.4767 110.933 45.1633 111.417 44.75 111.83C44.3367 112.243 43.8267 112.57 43.22 112.81C42.62 113.043 41.9367 113.16 41.17 113.16C40.71 113.16 40.2633 113.113 39.83 113.02C39.3967 112.933 38.9867 112.81 38.6 112.65C38.2133 112.483 37.85 112.287 37.51 112.06C37.1767 111.827 36.8767 111.567 36.61 111.28L37.22 110.26C37.28 110.18 37.35 110.113 37.43 110.06C37.5167 110.007 37.6133 109.98 37.72 109.98C37.86 109.98 38.02 110.053 38.2 110.2C38.3867 110.347 38.6133 110.51 38.88 110.69C39.1533 110.863 39.4767 111.023 39.85 111.17C40.23 111.317 40.69 111.39 41.23 111.39C41.67 111.39 42.0633 111.333 42.41 111.22C42.7567 111.1 43.0467 110.933 43.28 110.72C43.52 110.5 43.7033 110.237 43.83 109.93C43.9567 109.623 44.02 109.283 44.02 108.91C44.02 108.49 43.9233 108.147 43.73 107.88C43.5367 107.613 43.28 107.39 42.96 107.21C42.64 107.03 42.2767 106.877 41.87 106.75C41.4633 106.623 41.0467 106.493 40.62 106.36C40.1933 106.22 39.7767 106.06 39.37 105.88C38.9633 105.7 38.6 105.467 38.28 105.18C37.96 104.887 37.7033 104.523 37.51 104.09C37.3167 103.65 37.22 103.11 37.22 102.47C37.22 101.957 37.32 101.46 37.52 100.98C37.72 100.5 38.01 100.077 38.39 99.71C38.7767 99.3367 39.25 99.04 39.81 98.82C40.37 98.5933 41.01 98.48 41.73 98.48C42.5367 98.48 43.2767 98.61 43.95 98.87C44.63 99.1233 45.22 99.49 45.72 99.97L45.2 100.98ZM56.0055 107.65L53.8755 102.08C53.7221 101.7 53.5688 101.22 53.4155 100.64C53.3421 100.927 53.2655 101.193 53.1855 101.44C53.1121 101.687 53.0388 101.907 52.9655 102.1L50.8455 107.65H56.0055ZM60.2155 113H58.5755C58.3888 113 58.2355 112.953 58.1155 112.86C57.9955 112.767 57.9088 112.647 57.8555 112.5L56.5855 109.17H50.2555L48.9855 112.5C48.9388 112.627 48.8521 112.743 48.7255 112.85C48.5988 112.95 48.4455 113 48.2655 113H46.6255L52.3455 98.64H54.4955L60.2155 113ZM70.2283 111.21V113H62.0083V98.64H64.1383V111.21H70.2283ZM79.9313 107.65L77.8013 102.08C77.6479 101.7 77.4946 101.22 77.3413 100.64C77.2679 100.927 77.1913 101.193 77.1113 101.44C77.0379 101.687 76.9646 101.907 76.8913 102.1L74.7713 107.65H79.9313ZM84.1413 113H82.5013C82.3146 113 82.1613 112.953 82.0413 112.86C81.9213 112.767 81.8346 112.647 81.7812 112.5L80.5113 109.17H74.1813L72.9113 112.5C72.8646 112.627 72.7779 112.743 72.6513 112.85C72.5246 112.95 72.3713 113 72.1913 113H70.5513L76.2713 98.64H78.4213L84.1413 113ZM90.0041 105.56C90.5507 105.56 91.0307 105.493 91.4441 105.36C91.8641 105.227 92.2141 105.04 92.4941 104.8C92.7741 104.553 92.9841 104.263 93.1241 103.93C93.2641 103.59 93.3341 103.217 93.3341 102.81C93.3341 101.983 93.0607 101.36 92.5141 100.94C91.9741 100.52 91.1607 100.31 90.0741 100.31H88.0641V105.56H90.0041ZM96.7041 113H94.8041C94.4241 113 94.1474 112.85 93.9741 112.55L90.4241 107.57C90.3107 107.403 90.1874 107.287 90.0541 107.22C89.9207 107.147 89.7207 107.11 89.4541 107.11H88.0641V113H85.9341V98.64H90.0741C91.0007 98.64 91.7974 98.7367 92.4641 98.93C93.1374 99.1167 93.6907 99.3867 94.1241 99.74C94.5641 100.087 94.8874 100.507 95.0941 101C95.3074 101.493 95.4141 102.047 95.4141 102.66C95.4141 103.16 95.3374 103.63 95.1841 104.07C95.0307 104.51 94.8041 104.907 94.5041 105.26C94.2107 105.607 93.8507 105.907 93.4241 106.16C92.9974 106.413 92.5141 106.607 91.9741 106.74C92.2407 106.9 92.4707 107.123 92.6641 107.41L96.7041 113ZM103.555 107.32V113H101.435V107.32L96.1753 98.64H98.0453C98.232 98.64 98.382 98.6867 98.4953 98.78C98.6086 98.8667 98.702 98.9833 98.7753 99.13L101.895 104.5C102.022 104.747 102.135 104.98 102.235 105.2C102.342 105.42 102.435 105.637 102.515 105.85C102.589 105.637 102.672 105.42 102.765 105.2C102.865 104.98 102.979 104.747 103.105 104.5L106.215 99.13C106.282 99.01 106.372 98.9 106.485 98.8C106.605 98.6933 106.755 98.64 106.935 98.64H108.815L103.555 107.32ZM118.891 105.56C119.437 105.56 119.917 105.493 120.331 105.36C120.751 105.227 121.101 105.04 121.381 104.8C121.661 104.553 121.871 104.263 122.011 103.93C122.151 103.59 122.221 103.217 122.221 102.81C122.221 101.983 121.947 101.36 121.401 100.94C120.861 100.52 120.047 100.31 118.961 100.31H116.951V105.56H118.891ZM125.591 113H123.691C123.311 113 123.034 112.85 122.861 112.55L119.311 107.57C119.197 107.403 119.074 107.287 118.941 107.22C118.807 107.147 118.607 107.11 118.341 107.11H116.951V113H114.821V98.64H118.961C119.887 98.64 120.684 98.7367 121.351 98.93C122.024 99.1167 122.577 99.3867 123.011 99.74C123.451 100.087 123.774 100.507 123.981 101C124.194 101.493 124.301 102.047 124.301 102.66C124.301 103.16 124.224 103.63 124.071 104.07C123.917 104.51 123.691 104.907 123.391 105.26C123.097 105.607 122.737 105.907 122.311 106.16C121.884 106.413 121.401 106.607 120.861 106.74C121.127 106.9 121.357 107.123 121.551 107.41L125.591 113ZM135.068 107.65L132.938 102.08C132.785 101.7 132.631 101.22 132.478 100.64C132.405 100.927 132.328 101.193 132.248 101.44C132.175 101.687 132.101 101.907 132.028 102.1L129.908 107.65H135.068ZM139.278 113H137.638C137.451 113 137.298 112.953 137.178 112.86C137.058 112.767 136.971 112.647 136.918 112.5L135.648 109.17H129.318L128.048 112.5C128.001 112.627 127.915 112.743 127.788 112.85C127.661 112.95 127.508 113 127.328 113H125.688L131.408 98.64H133.558L139.278 113ZM152.831 98.64V113H151.751C151.584 113 151.444 112.97 151.331 112.91C151.224 112.85 151.114 112.753 151.001 112.62L142.891 102.13C142.904 102.31 142.914 102.487 142.921 102.66C142.934 102.833 142.941 102.997 142.941 103.15V113H141.071V98.64H142.171C142.357 98.64 142.497 98.6633 142.591 98.71C142.684 98.75 142.787 98.8467 142.901 99L151.031 109.5C151.011 109.307 150.994 109.12 150.981 108.94C150.974 108.753 150.971 108.58 150.971 108.42V98.64H152.831ZM168.103 106.01V111.61C167.377 112.13 166.603 112.52 165.783 112.78C164.963 113.033 164.07 113.16 163.103 113.16C161.943 113.16 160.893 112.98 159.953 112.62C159.02 112.26 158.223 111.757 157.563 111.11C156.903 110.463 156.393 109.69 156.033 108.79C155.68 107.89 155.503 106.9 155.503 105.82C155.503 104.733 155.673 103.74 156.013 102.84C156.36 101.933 156.853 101.16 157.493 100.52C158.133 99.8733 158.907 99.3733 159.813 99.02C160.727 98.66 161.75 98.48 162.883 98.48C163.457 98.48 163.987 98.5233 164.473 98.61C164.967 98.6967 165.423 98.82 165.843 98.98C166.263 99.14 166.65 99.3333 167.003 99.56C167.363 99.78 167.697 100.03 168.003 100.31L167.393 101.27C167.3 101.423 167.177 101.52 167.023 101.56C166.87 101.6 166.703 101.563 166.523 101.45C166.35 101.35 166.157 101.233 165.943 101.1C165.737 100.967 165.487 100.843 165.193 100.73C164.907 100.617 164.57 100.52 164.183 100.44C163.797 100.36 163.34 100.32 162.813 100.32C162.027 100.32 161.317 100.45 160.683 100.71C160.05 100.963 159.51 101.33 159.063 101.81C158.617 102.29 158.273 102.87 158.033 103.55C157.793 104.223 157.673 104.98 157.673 105.82C157.673 106.7 157.8 107.49 158.053 108.19C158.307 108.883 158.663 109.473 159.123 109.96C159.59 110.44 160.153 110.807 160.813 111.06C161.48 111.313 162.223 111.44 163.043 111.44C163.363 111.44 163.66 111.423 163.933 111.39C164.213 111.35 164.48 111.297 164.733 111.23C164.987 111.163 165.23 111.08 165.463 110.98C165.703 110.88 165.94 110.77 166.173 110.65V107.64H164.053C163.92 107.64 163.81 107.6 163.723 107.52C163.643 107.44 163.603 107.34 163.603 107.22V106.01H168.103ZM179.883 111.27L179.873 113H170.973V98.64H179.873V100.37H173.113V104.92H178.553V106.59H173.113V111.27H179.883Z" fill="#565656"/>
<path d="M45.465 155.105C46.525 154.965 47.325 154.61 47.865 154.04C48.415 153.46 48.69 152.705 48.69 151.775C48.69 151.395 48.62 151.065 48.48 150.785C48.35 150.495 48.16 150.24 47.91 150.02C47.67 149.8 47.385 149.61 47.055 149.45C46.725 149.29 46.365 149.14 45.975 149L45.465 155.105ZM44.505 139.25C43.945 139.32 43.47 139.44 43.08 139.61C42.69 139.77 42.37 139.97 42.12 140.21C41.87 140.45 41.685 140.72 41.565 141.02C41.455 141.32 41.4 141.635 41.4 141.965C41.4 142.345 41.465 142.68 41.595 142.97C41.735 143.25 41.92 143.505 42.15 143.735C42.39 143.955 42.67 144.155 42.99 144.335C43.31 144.505 43.66 144.665 44.04 144.815L44.505 139.25ZM46.26 145.535C46.98 145.755 47.695 146 48.405 146.27C49.115 146.53 49.75 146.87 50.31 147.29C50.88 147.71 51.34 148.235 51.69 148.865C52.04 149.485 52.215 150.265 52.215 151.205C52.215 152.135 52.06 153.01 51.75 153.83C51.44 154.64 50.985 155.36 50.385 155.99C49.785 156.61 49.05 157.12 48.18 157.52C47.31 157.91 46.315 158.14 45.195 158.21L45.015 160.415C45.005 160.645 44.905 160.855 44.715 161.045C44.535 161.245 44.305 161.345 44.025 161.345H42.66L42.93 158.135C41.76 157.975 40.66 157.655 39.63 157.175C38.6 156.695 37.725 156.1 37.005 155.39L38.145 153.695C38.245 153.545 38.375 153.425 38.535 153.335C38.705 153.235 38.885 153.185 39.075 153.185C39.295 153.185 39.53 153.265 39.78 153.425C40.03 153.575 40.315 153.755 40.635 153.965C40.955 154.165 41.32 154.37 41.73 154.58C42.14 154.79 42.625 154.945 43.185 155.045L43.74 148.34C43.03 148.14 42.325 147.905 41.625 147.635C40.935 147.365 40.31 147.01 39.75 146.57C39.2 146.12 38.755 145.555 38.415 144.875C38.075 144.195 37.905 143.345 37.905 142.325C37.905 141.565 38.055 140.825 38.355 140.105C38.655 139.375 39.095 138.725 39.675 138.155C40.265 137.585 40.985 137.115 41.835 136.745C42.685 136.375 43.66 136.165 44.76 136.115L44.925 134.225C44.945 133.985 45.045 133.77 45.225 133.58C45.405 133.39 45.64 133.295 45.93 133.295H47.295L47.055 136.235C48.115 136.405 49.03 136.71 49.8 137.15C50.57 137.58 51.235 138.065 51.795 138.605L50.895 139.97C50.765 140.17 50.63 140.32 50.49 140.42C50.35 140.52 50.18 140.57 49.98 140.57C49.83 140.57 49.65 140.525 49.44 140.435C49.23 140.335 48.995 140.22 48.735 140.09C48.475 139.95 48.18 139.81 47.85 139.67C47.53 139.53 47.175 139.415 46.785 139.325L46.26 145.535ZM64.0823 149.825V142.73C64.0823 142.06 64.1273 141.32 64.2173 140.51L57.4823 149.825H64.0823ZM70.0373 149.825V151.97C70.0373 152.17 69.9723 152.345 69.8423 152.495C69.7123 152.635 69.5273 152.705 69.2873 152.705H67.3073V158H64.0823V152.705H54.9323C54.6823 152.705 54.4623 152.63 54.2723 152.48C54.0823 152.32 53.9623 152.125 53.9123 151.895L53.5223 150.02L63.7973 136.295H67.3073V149.825H70.0373ZM85.5197 154.55C85.9197 154.55 86.2347 154.665 86.4647 154.895C86.7047 155.115 86.8247 155.41 86.8247 155.78V158H71.9447V156.77C71.9447 156.52 71.9947 156.26 72.0947 155.99C72.2047 155.71 72.3747 155.46 72.6047 155.24L79.1897 148.64C79.7397 148.08 80.2297 147.545 80.6597 147.035C81.0997 146.525 81.4647 146.02 81.7547 145.52C82.0447 145.02 82.2647 144.515 82.4147 144.005C82.5747 143.485 82.6547 142.94 82.6547 142.37C82.6547 141.85 82.5797 141.395 82.4297 141.005C82.2797 140.605 82.0647 140.27 81.7847 140C81.5147 139.73 81.1847 139.53 80.7947 139.4C80.4147 139.26 79.9847 139.19 79.5047 139.19C79.0647 139.19 78.6547 139.255 78.2747 139.385C77.9047 139.505 77.5747 139.68 77.2847 139.91C76.9947 140.13 76.7497 140.39 76.5497 140.69C76.3497 140.99 76.1997 141.32 76.0997 141.68C75.9297 142.14 75.7097 142.445 75.4397 142.595C75.1697 142.745 74.7797 142.78 74.2697 142.7L72.3197 142.355C72.4697 141.315 72.7597 140.405 73.1897 139.625C73.6197 138.835 74.1547 138.18 74.7947 137.66C75.4447 137.13 76.1847 136.735 77.0147 136.475C77.8547 136.205 78.7547 136.07 79.7147 136.07C80.7147 136.07 81.6297 136.22 82.4597 136.52C83.2897 136.81 83.9997 137.225 84.5897 137.765C85.1797 138.305 85.6397 138.955 85.9697 139.715C86.2997 140.475 86.4647 141.32 86.4647 142.25C86.4647 143.05 86.3447 143.79 86.1047 144.47C85.8747 145.15 85.5597 145.8 85.1597 146.42C84.7697 147.04 84.3097 147.64 83.7797 148.22C83.2497 148.8 82.6947 149.39 82.1147 149.99L77.2247 154.985C77.6947 154.845 78.1597 154.74 78.6197 154.67C79.0897 154.59 79.5347 154.55 79.9547 154.55H85.5197ZM89.977 161.675C89.797 161.525 89.707 161.34 89.707 161.12C89.707 161.04 89.732 160.95 89.782 160.85C89.842 160.75 89.912 160.66 89.992 160.58C90.102 160.46 90.237 160.31 90.397 160.13C90.557 159.96 90.717 159.76 90.877 159.53C91.037 159.31 91.182 159.065 91.312 158.795C91.452 158.535 91.557 158.255 91.627 157.955C91.307 157.955 91.017 157.9 90.757 157.79C90.497 157.67 90.272 157.51 90.082 157.31C89.902 157.11 89.757 156.875 89.647 156.605C89.547 156.335 89.497 156.04 89.497 155.72C89.497 155.44 89.547 155.18 89.647 154.94C89.757 154.69 89.907 154.475 90.097 154.295C90.287 154.105 90.517 153.96 90.787 153.86C91.057 153.75 91.352 153.695 91.672 153.695C92.052 153.695 92.382 153.765 92.662 153.905C92.952 154.035 93.187 154.22 93.367 154.46C93.557 154.69 93.697 154.96 93.787 155.27C93.887 155.57 93.937 155.89 93.937 156.23C93.937 156.71 93.862 157.215 93.712 157.745C93.572 158.275 93.362 158.805 93.082 159.335C92.802 159.865 92.452 160.38 92.032 160.88C91.622 161.38 91.152 161.84 90.622 162.26L89.977 161.675ZM101.328 144.185C101.808 144.085 102.268 144.015 102.708 143.975C103.148 143.925 103.573 143.9 103.983 143.9C105.123 143.9 106.128 144.07 106.998 144.41C107.868 144.75 108.598 145.22 109.188 145.82C109.778 146.42 110.223 147.125 110.523 147.935C110.823 148.735 110.973 149.6 110.973 150.53C110.973 151.68 110.768 152.73 110.358 153.68C109.958 154.63 109.398 155.445 108.678 156.125C107.958 156.795 107.103 157.315 106.113 157.685C105.133 158.055 104.063 158.24 102.903 158.24C102.223 158.24 101.578 158.17 100.968 158.03C100.358 157.89 99.7833 157.705 99.2433 157.475C98.7133 157.235 98.2183 156.965 97.7583 156.665C97.3083 156.355 96.9033 156.03 96.5433 155.69L97.6833 154.115C97.9233 153.775 98.2383 153.605 98.6283 153.605C98.8783 153.605 99.1333 153.685 99.3933 153.845C99.6533 154.005 99.9483 154.18 100.278 154.37C100.618 154.56 101.013 154.735 101.463 154.895C101.923 155.055 102.473 155.135 103.113 155.135C103.793 155.135 104.393 155.025 104.913 154.805C105.433 154.585 105.863 154.28 106.203 153.89C106.553 153.49 106.813 153.02 106.983 152.48C107.163 151.93 107.253 151.335 107.253 150.695C107.253 149.515 106.908 148.595 106.218 147.935C105.538 147.265 104.528 146.93 103.188 146.93C102.158 146.93 101.103 147.12 100.023 147.5L97.7133 146.84L99.5133 136.31H110.223V137.885C110.223 138.415 110.058 138.845 109.728 139.175C109.398 139.505 108.838 139.67 108.048 139.67H102.093L101.328 144.185ZM129.291 147.155C129.291 149.045 129.086 150.69 128.676 152.09C128.276 153.48 127.716 154.63 126.996 155.54C126.286 156.45 125.441 157.13 124.461 157.58C123.491 158.02 122.441 158.24 121.311 158.24C120.181 158.24 119.131 158.02 118.161 157.58C117.201 157.13 116.366 156.45 115.656 155.54C114.946 154.63 114.391 153.48 113.991 152.09C113.591 150.69 113.391 149.045 113.391 147.155C113.391 145.255 113.591 143.61 113.991 142.22C114.391 140.83 114.946 139.68 115.656 138.77C116.366 137.86 117.201 137.185 118.161 136.745C119.131 136.295 120.181 136.07 121.311 136.07C122.441 136.07 123.491 136.295 124.461 136.745C125.441 137.185 126.286 137.86 126.996 138.77C127.716 139.68 128.276 140.83 128.676 142.22C129.086 143.61 129.291 145.255 129.291 147.155ZM125.466 147.155C125.466 145.585 125.351 144.285 125.121 143.255C124.891 142.225 124.581 141.405 124.191 140.795C123.811 140.185 123.371 139.76 122.871 139.52C122.371 139.27 121.851 139.145 121.311 139.145C120.781 139.145 120.266 139.27 119.766 139.52C119.276 139.76 118.841 140.185 118.461 140.795C118.081 141.405 117.776 142.225 117.546 143.255C117.326 144.285 117.216 145.585 117.216 147.155C117.216 148.725 117.326 150.025 117.546 151.055C117.776 152.085 118.081 152.905 118.461 153.515C118.841 154.125 119.276 154.555 119.766 154.805C120.266 155.045 120.781 155.165 121.311 155.165C121.851 155.165 122.371 155.045 122.871 154.805C123.371 154.555 123.811 154.125 124.191 153.515C124.581 152.905 124.891 152.085 125.121 151.055C125.351 150.025 125.466 148.725 125.466 147.155ZM146.693 147.155C146.693 149.045 146.488 150.69 146.078 152.09C145.678 153.48 145.118 154.63 144.398 155.54C143.688 156.45 142.843 157.13 141.863 157.58C140.893 158.02 139.843 158.24 138.713 158.24C137.583 158.24 136.533 158.02 135.563 157.58C134.603 157.13 133.768 156.45 133.058 155.54C132.348 154.63 131.793 153.48 131.393 152.09C130.993 150.69 130.793 149.045 130.793 147.155C130.793 145.255 130.993 143.61 131.393 142.22C131.793 140.83 132.348 139.68 133.058 138.77C133.768 137.86 134.603 137.185 135.563 136.745C136.533 136.295 137.583 136.07 138.713 136.07C139.843 136.07 140.893 136.295 141.863 136.745C142.843 137.185 143.688 137.86 144.398 138.77C145.118 139.68 145.678 140.83 146.078 142.22C146.488 143.61 146.693 145.255 146.693 147.155ZM142.868 147.155C142.868 145.585 142.753 144.285 142.523 143.255C142.293 142.225 141.983 141.405 141.593 140.795C141.213 140.185 140.773 139.76 140.273 139.52C139.773 139.27 139.253 139.145 138.713 139.145C138.183 139.145 137.668 139.27 137.168 139.52C136.678 139.76 136.243 140.185 135.863 140.795C135.483 141.405 135.178 142.225 134.948 143.255C134.728 144.285 134.618 145.585 134.618 147.155C134.618 148.725 134.728 150.025 134.948 151.055C135.178 152.085 135.483 152.905 135.863 153.515C136.243 154.125 136.678 154.555 137.168 154.805C137.668 155.045 138.183 155.165 138.713 155.165C139.253 155.165 139.773 155.045 140.273 154.805C140.773 154.555 141.213 154.125 141.593 153.515C141.983 152.905 142.293 152.085 142.523 151.055C142.753 150.025 142.868 148.725 142.868 147.155ZM156.45 147.395H164.22V150.485H156.45V147.395ZM182.692 155.105C183.752 154.965 184.552 154.61 185.092 154.04C185.642 153.46 185.917 152.705 185.917 151.775C185.917 151.395 185.847 151.065 185.707 150.785C185.577 150.495 185.387 150.24 185.137 150.02C184.897 149.8 184.612 149.61 184.282 149.45C183.952 149.29 183.592 149.14 183.202 149L182.692 155.105ZM181.732 139.25C181.172 139.32 180.697 139.44 180.307 139.61C179.917 139.77 179.597 139.97 179.347 140.21C179.097 140.45 178.912 140.72 178.792 141.02C178.682 141.32 178.627 141.635 178.627 141.965C178.627 142.345 178.692 142.68 178.822 142.97C178.962 143.25 179.147 143.505 179.377 143.735C179.617 143.955 179.897 144.155 180.217 144.335C180.537 144.505 180.887 144.665 181.267 144.815L181.732 139.25ZM183.487 145.535C184.207 145.755 184.922 146 185.632 146.27C186.342 146.53 186.977 146.87 187.537 147.29C188.107 147.71 188.567 148.235 188.917 148.865C189.267 149.485 189.442 150.265 189.442 151.205C189.442 152.135 189.287 153.01 188.977 153.83C188.667 154.64 188.212 155.36 187.612 155.99C187.012 156.61 186.277 157.12 185.407 157.52C184.537 157.91 183.542 158.14 182.422 158.21L182.242 160.415C182.232 160.645 182.132 160.855 181.942 161.045C181.762 161.245 181.532 161.345 181.252 161.345H179.887L180.157 158.135C178.987 157.975 177.887 157.655 176.857 157.175C175.827 156.695 174.952 156.1 174.232 155.39L175.372 153.695C175.472 153.545 175.602 153.425 175.762 153.335C175.932 153.235 176.112 153.185 176.302 153.185C176.522 153.185 176.757 153.265 177.007 153.425C177.257 153.575 177.542 153.755 177.862 153.965C178.182 154.165 178.547 154.37 178.957 154.58C179.367 154.79 179.852 154.945 180.412 155.045L180.967 148.34C180.257 148.14 179.552 147.905 178.852 147.635C178.162 147.365 177.537 147.01 176.977 146.57C176.427 146.12 175.982 145.555 175.642 144.875C175.302 144.195 175.132 143.345 175.132 142.325C175.132 141.565 175.282 140.825 175.582 140.105C175.882 139.375 176.322 138.725 176.902 138.155C177.492 137.585 178.212 137.115 179.062 136.745C179.912 136.375 180.887 136.165 181.987 136.115L182.152 134.225C182.172 133.985 182.272 133.77 182.452 133.58C182.632 133.39 182.867 133.295 183.157 133.295H184.522L184.282 136.235C185.342 136.405 186.257 136.71 187.027 137.15C187.797 137.58 188.462 138.065 189.022 138.605L188.122 139.97C187.992 140.17 187.857 140.32 187.717 140.42C187.577 140.52 187.407 140.57 187.207 140.57C187.057 140.57 186.877 140.525 186.667 140.435C186.457 140.335 186.222 140.22 185.962 140.09C185.702 139.95 185.407 139.81 185.077 139.67C184.757 139.53 184.402 139.415 184.012 139.325L183.487 145.535ZM196.719 144.185C197.199 144.085 197.659 144.015 198.099 143.975C198.539 143.925 198.964 143.9 199.374 143.9C200.514 143.9 201.519 144.07 202.389 144.41C203.259 144.75 203.989 145.22 204.579 145.82C205.169 146.42 205.614 147.125 205.914 147.935C206.214 148.735 206.364 149.6 206.364 150.53C206.364 151.68 206.159 152.73 205.749 153.68C205.349 154.63 204.789 155.445 204.069 156.125C203.349 156.795 202.494 157.315 201.504 157.685C200.524 158.055 199.454 158.24 198.294 158.24C197.614 158.24 196.969 158.17 196.359 158.03C195.749 157.89 195.174 157.705 194.634 157.475C194.104 157.235 193.609 156.965 193.149 156.665C192.699 156.355 192.294 156.03 191.934 155.69L193.074 154.115C193.314 153.775 193.629 153.605 194.019 153.605C194.269 153.605 194.524 153.685 194.784 153.845C195.044 154.005 195.339 154.18 195.669 154.37C196.009 154.56 196.404 154.735 196.854 154.895C197.314 155.055 197.864 155.135 198.504 155.135C199.184 155.135 199.784 155.025 200.304 154.805C200.824 154.585 201.254 154.28 201.594 153.89C201.944 153.49 202.204 153.02 202.374 152.48C202.554 151.93 202.644 151.335 202.644 150.695C202.644 149.515 202.299 148.595 201.609 147.935C200.929 147.265 199.919 146.93 198.579 146.93C197.549 146.93 196.494 147.12 195.414 147.5L193.104 146.84L194.904 136.31H205.614V137.885C205.614 138.415 205.449 138.845 205.119 139.175C204.789 139.505 204.229 139.67 203.439 139.67H197.484L196.719 144.185ZM209.651 142.355C209.801 141.315 210.091 140.405 210.521 139.625C210.951 138.835 211.486 138.18 212.126 137.66C212.776 137.13 213.516 136.735 214.346 136.475C215.186 136.205 216.086 136.07 217.046 136.07C218.046 136.07 218.946 136.215 219.746 136.505C220.556 136.785 221.246 137.18 221.816 137.69C222.386 138.19 222.821 138.78 223.121 139.46C223.431 140.14 223.586 140.875 223.586 141.665C223.586 142.355 223.506 142.965 223.346 143.495C223.196 144.015 222.976 144.47 222.686 144.86C222.396 145.25 222.036 145.58 221.606 145.85C221.176 146.12 220.691 146.345 220.151 146.525C221.451 146.935 222.421 147.56 223.061 148.4C223.701 149.24 224.021 150.295 224.021 151.565C224.021 152.645 223.821 153.6 223.421 154.43C223.021 155.26 222.481 155.96 221.801 156.53C221.121 157.09 220.331 157.515 219.431 157.805C218.541 158.095 217.596 158.24 216.596 158.24C215.506 158.24 214.556 158.115 213.746 157.865C212.936 157.615 212.231 157.245 211.631 156.755C211.031 156.265 210.521 155.665 210.101 154.955C209.681 154.245 209.321 153.425 209.021 152.495L210.656 151.82C211.086 151.64 211.486 151.595 211.856 151.685C212.236 151.765 212.511 151.965 212.681 152.285C212.861 152.635 213.056 152.98 213.266 153.32C213.486 153.66 213.746 153.965 214.046 154.235C214.346 154.495 214.696 154.71 215.096 154.88C215.506 155.04 215.991 155.12 216.551 155.12C217.181 155.12 217.731 155.02 218.201 154.82C218.671 154.61 219.061 154.34 219.371 154.01C219.691 153.68 219.926 153.315 220.076 152.915C220.236 152.505 220.316 152.095 220.316 151.685C220.316 151.165 220.261 150.695 220.151 150.275C220.041 149.845 219.811 149.48 219.461 149.18C219.111 148.88 218.606 148.645 217.946 148.475C217.296 148.305 216.421 148.22 215.321 148.22V145.58C216.231 145.57 216.986 145.485 217.586 145.325C218.186 145.165 218.661 144.945 219.011 144.665C219.371 144.375 219.621 144.03 219.761 143.63C219.901 143.23 219.971 142.79 219.971 142.31C219.971 141.29 219.686 140.515 219.116 139.985C218.546 139.455 217.786 139.19 216.836 139.19C216.396 139.19 215.991 139.255 215.621 139.385C215.251 139.505 214.916 139.68 214.616 139.91C214.326 140.13 214.081 140.39 213.881 140.69C213.681 140.99 213.531 141.32 213.431 141.68C213.261 142.14 213.036 142.445 212.756 142.595C212.486 142.745 212.101 142.78 211.601 142.7L209.651 142.355ZM227.204 161.675C227.024 161.525 226.934 161.34 226.934 161.12C226.934 161.04 226.959 160.95 227.009 160.85C227.069 160.75 227.139 160.66 227.219 160.58C227.329 160.46 227.464 160.31 227.624 160.13C227.784 159.96 227.944 159.76 228.104 159.53C228.264 159.31 228.409 159.065 228.539 158.795C228.679 158.535 228.784 158.255 228.854 157.955C228.534 157.955 228.244 157.9 227.984 157.79C227.724 157.67 227.499 157.51 227.309 157.31C227.129 157.11 226.984 156.875 226.874 156.605C226.774 156.335 226.724 156.04 226.724 155.72C226.724 155.44 226.774 155.18 226.874 154.94C226.984 154.69 227.134 154.475 227.324 154.295C227.514 154.105 227.744 153.96 228.014 153.86C228.284 153.75 228.579 153.695 228.899 153.695C229.279 153.695 229.609 153.765 229.889 153.905C230.179 154.035 230.414 154.22 230.594 154.46C230.784 154.69 230.924 154.96 231.014 155.27C231.114 155.57 231.164 155.89 231.164 156.23C231.164 156.71 231.089 157.215 230.939 157.745C230.799 158.275 230.589 158.805 230.309 159.335C230.029 159.865 229.679 160.38 229.259 160.88C228.849 161.38 228.379 161.84 227.849 162.26L227.204 161.675ZM248.845 136.31V137.915C248.845 138.395 248.795 138.785 248.695 139.085C248.595 139.375 248.495 139.62 248.395 139.82L240.175 156.74C240.005 157.09 239.765 157.39 239.455 157.64C239.145 157.88 238.73 158 238.21 158H235.525L243.91 141.425C244.1 141.085 244.285 140.775 244.465 140.495C244.655 140.205 244.865 139.93 245.095 139.67H234.715C234.485 139.67 234.285 139.585 234.115 139.415C233.945 139.245 233.86 139.045 233.86 138.815V136.31H248.845ZM255.957 144.185C256.437 144.085 256.897 144.015 257.337 143.975C257.777 143.925 258.202 143.9 258.612 143.9C259.752 143.9 260.757 144.07 261.627 144.41C262.497 144.75 263.227 145.22 263.817 145.82C264.407 146.42 264.852 147.125 265.152 147.935C265.452 148.735 265.602 149.6 265.602 150.53C265.602 151.68 265.397 152.73 264.987 153.68C264.587 154.63 264.027 155.445 263.307 156.125C262.587 156.795 261.732 157.315 260.742 157.685C259.762 158.055 258.692 158.24 257.532 158.24C256.852 158.24 256.207 158.17 255.597 158.03C254.987 157.89 254.412 157.705 253.872 157.475C253.342 157.235 252.847 156.965 252.387 156.665C251.937 156.355 251.532 156.03 251.172 155.69L252.312 154.115C252.552 153.775 252.867 153.605 253.257 153.605C253.507 153.605 253.762 153.685 254.022 153.845C254.282 154.005 254.577 154.18 254.907 154.37C255.247 154.56 255.642 154.735 256.092 154.895C256.552 155.055 257.102 155.135 257.742 155.135C258.422 155.135 259.022 155.025 259.542 154.805C260.062 154.585 260.492 154.28 260.832 153.89C261.182 153.49 261.442 153.02 261.612 152.48C261.792 151.93 261.882 151.335 261.882 150.695C261.882 149.515 261.537 148.595 260.847 147.935C260.167 147.265 259.157 146.93 257.817 146.93C256.787 146.93 255.732 147.12 254.652 147.5L252.342 146.84L254.142 136.31H264.852V137.885C264.852 138.415 264.687 138.845 264.357 139.175C264.027 139.505 263.467 139.67 262.677 139.67H256.722L255.957 144.185ZM283.92 147.155C283.92 149.045 283.715 150.69 283.305 152.09C282.905 153.48 282.345 154.63 281.625 155.54C280.915 156.45 280.07 157.13 279.09 157.58C278.12 158.02 277.07 158.24 275.94 158.24C274.81 158.24 273.76 158.02 272.79 157.58C271.83 157.13 270.995 156.45 270.285 155.54C269.575 154.63 269.02 153.48 268.62 152.09C268.22 150.69 268.02 149.045 268.02 147.155C268.02 145.255 268.22 143.61 268.62 142.22C269.02 140.83 269.575 139.68 270.285 138.77C270.995 137.86 271.83 137.185 272.79 136.745C273.76 136.295 274.81 136.07 275.94 136.07C277.07 136.07 278.12 136.295 279.09 136.745C280.07 137.185 280.915 137.86 281.625 138.77C282.345 139.68 282.905 140.83 283.305 142.22C283.715 143.61 283.92 145.255 283.92 147.155ZM280.095 147.155C280.095 145.585 279.98 144.285 279.75 143.255C279.52 142.225 279.21 141.405 278.82 140.795C278.44 140.185 278 139.76 277.5 139.52C277 139.27 276.48 139.145 275.94 139.145C275.41 139.145 274.895 139.27 274.395 139.52C273.905 139.76 273.47 140.185 273.09 140.795C272.71 141.405 272.405 142.225 272.175 143.255C271.955 144.285 271.845 145.585 271.845 147.155C271.845 148.725 271.955 150.025 272.175 151.055C272.405 152.085 272.71 152.905 273.09 153.515C273.47 154.125 273.905 154.555 274.395 154.805C274.895 155.045 275.41 155.165 275.94 155.165C276.48 155.165 277 155.045 277.5 154.805C278 154.555 278.44 154.125 278.82 153.515C279.21 152.905 279.52 152.085 279.75 151.055C279.98 150.025 280.095 148.725 280.095 147.155Z" fill="black"/>
<defs>
<linearGradient id="paint0_linear_55_667" x1="254.5" y1="0" x2="254.5" y2="138" gradientUnits="userSpaceOnUse">
<stop stop-color="#D5E3EA" stop-opacity="0.11"/>
<stop offset="1" stop-color="#063853" stop-opacity="0.1"/>
</linearGradient>
</defs>
</svg>
